<svg width="17" height="18" viewBox="0 0 17 18" fill="none" xmlns="http://www.w3.org/2000/svg">
<path d="M11.8124 8.15231C11.7666 8.00777 11.6851 7.87752 11.5758 7.77396C11.4664 7.67039 11.3328 7.59695 11.1876 7.56062L9.63477 7.16796L8.78636 5.78931C8.62433 5.5261 8.34489 5.36914 8.03942 5.36914C7.73396 5.36914 7.45452 5.52664 7.29249 5.78931L6.44408 7.16796L4.89124 7.56062C4.59427 7.63559 4.36052 7.85674 4.26649 8.15231C4.17246 8.44789 4.23302 8.76612 4.42958 9.00345L5.45861 10.2483L5.34652 11.8697C5.33567 12.021 5.36311 12.1727 5.42625 12.3102C5.48938 12.4478 5.58611 12.5667 5.70724 12.6556C5.95374 12.8373 6.27036 12.8772 6.55564 12.7613L8.03942 12.1523L9.52374 12.7613C9.66222 12.8188 9.81286 12.8394 9.96139 12.8212C10.1099 12.8029 10.2514 12.7465 10.3724 12.6572C10.4934 12.5679 10.59 12.4487 10.6529 12.3108C10.7158 12.173 10.7429 12.0212 10.7318 11.8697L10.6197 10.2483L11.6487 9.00399C11.7453 8.888 11.8111 8.74885 11.8397 8.59977C11.8683 8.45069 11.8589 8.29665 11.8124 8.15231ZM9.76333 9.77422C9.68355 9.87067 9.64392 9.99487 9.65283 10.1205L9.77024 11.8147L8.21952 11.1782C8.10446 11.1313 7.97598 11.1313 7.86092 11.1782L6.31021 11.8147L6.42761 10.1205C6.43602 9.99493 6.39644 9.87091 6.31711 9.77422L5.24186 8.47324L6.86483 8.06278C6.98486 8.03217 7.0886 7.95564 7.15436 7.84919L8.04049 6.40852L8.92661 7.84919C8.99249 7.95598 9.09608 8.03257 9.21614 8.06278L10.8391 8.47324L9.76333 9.77422Z" fill="#2C61D3"/>
<path d="M14.4872 7.89656C14.3604 7.89656 14.2388 7.94771 14.1491 8.03874C14.0594 8.12978 14.0091 8.25325 14.0091 8.382V13.0476C14.0077 13.6074 13.7876 14.1438 13.3972 14.5392C13.0069 14.9345 12.478 15.1566 11.9266 15.1566H4.14907C3.59834 15.156 3.07032 14.9336 2.6809 14.5382C2.29147 14.1428 2.07244 13.6067 2.07188 13.0476V5.15114C2.07188 4.59132 2.29056 4.05434 2.67995 3.65798C3.06935 3.26161 3.59768 3.03822 4.14907 3.03679H8.75501C8.88181 3.03679 9.00343 2.98565 9.09309 2.89461C9.18276 2.80357 9.23313 2.6801 9.23313 2.55136C9.23313 2.42261 9.18276 2.29914 9.09309 2.2081C9.00343 2.11706 8.88181 2.06592 8.75501 2.06592H4.14907C2.47669 2.06592 1.11563 3.44995 1.11563 5.15114V13.0476C1.11662 13.8641 1.43652 14.6469 2.00519 15.2243C2.57386 15.8016 3.34485 16.1264 4.14907 16.1274H11.9266C13.6021 16.1274 14.9653 14.7455 14.9653 13.0476V8.382C14.9653 8.25325 14.9149 8.12978 14.8253 8.03874C14.7356 7.94771 14.614 7.89656 14.4872 7.89656Z" fill="#2C61D3"/>
<path d="M15.0439 1.98612C14.5054 1.44077 13.7759 1.13452 13.0154 1.13452C12.2548 1.13452 11.5253 1.44077 10.9868 1.98612C10.4497 2.53283 10.148 3.27352 10.148 4.04572C10.148 4.81792 10.4497 5.5586 10.9868 6.10532C11.5462 6.67274 12.2809 6.95699 13.0151 6.95699C13.7493 6.95699 14.4845 6.67328 15.0434 6.10532C15.5809 5.55881 15.8828 4.81812 15.8829 4.04583C15.883 3.27354 15.5812 2.53277 15.0439 1.98612ZM14.3682 5.4187C13.6223 6.17544 12.4089 6.17598 11.6636 5.4187C10.9182 4.66141 10.9177 3.42948 11.6636 2.67274C12.0365 2.2941 12.5263 2.10478 13.0162 2.10478C13.506 2.10478 13.9958 2.2941 14.3687 2.6722C14.7265 3.03693 14.9274 3.53077 14.9273 4.04556C14.9272 4.56035 14.7261 5.05411 14.3682 5.4187Z" fill="#2C61D3"/>
<path d="M13.8343 3.55994H13.4937V3.2142C13.4937 3.08545 13.4434 2.96198 13.3537 2.87094C13.264 2.7799 13.1424 2.72876 13.0156 2.72876C12.8888 2.72876 12.7672 2.7799 12.6775 2.87094C12.5879 2.96198 12.5375 3.08545 12.5375 3.2142V3.55994H12.197C12.0702 3.55994 11.9485 3.61108 11.8589 3.70212C11.7692 3.79316 11.7188 3.91663 11.7188 4.04537C11.7188 4.17412 11.7692 4.29759 11.8589 4.38863C11.9485 4.47967 12.0702 4.53081 12.197 4.53081H12.5375V4.87655C12.5375 5.0053 12.5879 5.12877 12.6775 5.21981C12.7672 5.31084 12.8888 5.36199 13.0156 5.36199C13.1424 5.36199 13.264 5.31084 13.3537 5.21981C13.4434 5.12877 13.4937 5.0053 13.4937 4.87655V4.53081H13.8343C13.9611 4.53081 14.0827 4.47967 14.1724 4.38863C14.262 4.29759 14.3124 4.17412 14.3124 4.04537C14.3124 3.91663 14.262 3.79316 14.1724 3.70212C14.0827 3.61108 13.9611 3.55994 13.8343 3.55994Z" fill="#2C61D3"/>
</svg>
