<svg width="17" height="17" viewBox="0 0 17 17" fill="none" xmlns="http://www.w3.org/2000/svg">
<path d="M13.7475 4.96947L10.9409 4.56163L9.68567 2.01841C9.20088 1.03602 7.79901 1.03632 7.31437 2.01837L6.0592 4.5616L3.25257 4.96947C2.16839 5.12698 1.73562 6.46025 2.51981 7.22472L4.55071 9.20436L4.07129 11.9996C3.88612 13.0794 5.0203 13.9029 5.98974 13.3934L8.50006 12.0736L11.0104 13.3934C11.9785 13.9023 13.114 13.0792 12.9289 11.9996L12.4494 9.20433L14.4804 7.22469C15.2647 6.45995 14.8312 5.12695 13.7475 4.96947ZM13.6892 6.41317L11.4449 8.60073C11.3792 8.66486 11.33 8.74402 11.3016 8.8314C11.2732 8.91878 11.2665 9.01174 11.282 9.10229L11.8118 12.1912C11.8384 12.3463 11.677 12.4635 11.5377 12.3903L8.76369 10.932C8.68237 10.8892 8.59188 10.8669 8.50001 10.8669C8.40814 10.8669 8.31765 10.8892 8.23633 10.932L5.4623 12.3903C5.32298 12.4635 5.16165 12.3463 5.18825 12.1912L5.71803 9.10229C5.73356 9.01174 5.72684 8.91878 5.69845 8.8314C5.67006 8.74402 5.62086 8.66486 5.55507 8.60073L3.31084 6.41317C3.19812 6.3033 3.25977 6.11365 3.41553 6.09097L6.51697 5.6403C6.60788 5.62709 6.69422 5.59198 6.76855 5.53798C6.84288 5.48399 6.90296 5.41273 6.94363 5.33035L8.33066 2.51994C8.40028 2.37889 8.59973 2.37879 8.66939 2.51997L10.0564 5.33035C10.0971 5.41273 10.1572 5.48399 10.2315 5.53799C10.3058 5.59199 10.3922 5.6271 10.4831 5.6403L13.5845 6.09097C13.7402 6.11365 13.8019 6.30334 13.6892 6.41317ZM4.47348 1.56555L3.79577 0.632773C3.61176 0.379632 3.25742 0.323452 3.00428 0.507464C2.7511 0.691409 2.69496 1.04579 2.87893 1.29896L3.55664 2.2317C3.74072 2.48498 4.09507 2.54092 4.34814 2.35701C4.60131 2.1731 4.65746 1.81872 4.47348 1.56555ZM2.2245 9.9246C2.12785 9.627 1.80817 9.46397 1.51047 9.5608L0.391656 9.92434C0.0940228 10.0211 -0.0688385 10.3407 0.027849 10.6384C0.124702 10.9365 0.444913 11.0988 0.741882 11.0022L1.86069 10.6386C2.15836 10.5419 2.32122 10.2222 2.2245 9.9246ZM13.9957 0.507497C13.7426 0.323552 13.3882 0.379632 13.2042 0.632806L12.5265 1.56555C12.3426 1.81872 12.3987 2.17313 12.6519 2.35704C12.9052 2.54106 13.2595 2.48481 13.4434 2.23174L14.1211 1.29899C14.305 1.04582 14.2489 0.691409 13.9957 0.507497ZM16.6083 9.92434L15.4895 9.5608C15.1918 9.46391 14.8722 9.62697 14.7754 9.9246C14.6787 10.2222 14.8416 10.5419 15.1393 10.6386L16.2581 11.0022C16.5551 11.0988 16.8752 10.9365 16.9721 10.6384C17.0688 10.3407 16.9059 10.0211 16.6083 9.92434ZM8.49999 14.3173C8.18705 14.3173 7.93335 14.571 7.93335 14.884V16.034C7.93335 16.347 8.18705 16.6007 8.49999 16.6007C8.81293 16.6007 9.06664 16.347 9.06664 16.034V14.884C9.06667 14.571 8.81296 14.3173 8.49999 14.3173Z" fill="#515151"/>
</svg>
