<svg width="17" height="17" viewBox="0 0 17 17" fill="none" xmlns="http://www.w3.org/2000/svg">
<path d="M1.32812 13.9219H2.00733V4.97033C2.00733 4.89988 2.03531 4.83232 2.08513 4.78251C2.13494 4.73269 2.20251 4.70471 2.27295 4.70471H4.04441C4.11485 4.70471 4.18242 4.73269 4.23223 4.78251C4.28205 4.83232 4.31003 4.89988 4.31003 4.97033V13.9219H5.5683V7.1806C5.5683 7.11015 5.59628 7.04259 5.6461 6.99277C5.69591 6.94296 5.76347 6.91497 5.83392 6.91497H7.60484C7.67529 6.91497 7.74286 6.94296 7.79267 6.99277C7.84248 7.04259 7.87047 7.11015 7.87047 7.1806V13.9222H9.12953V8.84102C9.12953 8.77057 9.15752 8.70301 9.20733 8.65319C9.25715 8.60338 9.32471 8.57539 9.39516 8.57539H11.1663C11.2368 8.57539 11.3044 8.60338 11.3542 8.65319C11.404 8.70301 11.432 8.77057 11.432 8.84102V13.9216H12.6902V10.6279C12.6902 10.5574 12.7182 10.4899 12.768 10.4401C12.8178 10.3902 12.8854 10.3623 12.9559 10.3623H14.727C14.7975 10.3623 14.8651 10.3902 14.9149 10.4401C14.9647 10.4899 14.9927 10.5574 14.9927 10.6279V13.9216H15.6719C15.7423 13.9216 15.8099 13.9496 15.8597 13.9994C15.9095 14.0492 15.9375 14.1168 15.9375 14.1873C15.9375 14.2577 15.9095 14.3253 15.8597 14.3751C15.8099 14.4249 15.7423 14.4529 15.6719 14.4529C15.0936 14.4523 1.32812 14.4529 1.32812 14.4529C1.25768 14.4529 1.19011 14.4249 1.1403 14.3751C1.09049 14.3253 1.0625 14.2577 1.0625 14.1873C1.0625 14.1168 1.09049 14.0492 1.1403 13.9994C1.19011 13.9496 1.25768 13.9219 1.32812 13.9219ZM14.4614 13.9219V10.8938H13.2212V13.9219H14.4614ZM10.9005 13.9219V9.10691H9.66052V13.9219H10.9005ZM7.33948 13.9219V7.44622H6.09955V13.9222L7.33948 13.9219ZM3.77878 13.9219V5.23596H2.53858V13.9219H3.77878ZM12.5335 7.55539C9.36594 7.29455 7.22314 5.1305 6.23927 3.864L6.30966 4.40349C6.31842 4.47314 6.29924 4.54344 6.25633 4.599C6.21341 4.65456 6.15025 4.69087 6.08064 4.7C6.01103 4.70913 5.94064 4.69033 5.88485 4.6477C5.82906 4.60508 5.79242 4.54211 5.78292 4.47255L5.57042 2.84746C5.56324 2.78432 5.57897 2.7207 5.61476 2.66819C5.65054 2.61569 5.704 2.57778 5.76539 2.56138C5.79467 2.55468 5.82442 2.55024 5.85437 2.5481L7.4885 2.6756C7.52404 2.67724 7.5589 2.68601 7.59099 2.70139C7.62308 2.71676 7.65175 2.73843 7.6753 2.7651C7.69886 2.79177 7.71681 2.8229 7.72811 2.85664C7.7394 2.89039 7.74379 2.92606 7.74104 2.96153C7.73828 2.99701 7.72842 3.03157 7.71205 3.06316C7.69567 3.09475 7.67312 3.12273 7.64572 3.14544C7.61833 3.16815 7.58665 3.18512 7.55257 3.19535C7.51849 3.20558 7.4827 3.20886 7.44733 3.20499L6.35534 3.11999C7.09697 4.16442 9.24109 6.73435 12.5561 7.02521C12.6233 7.03245 12.6852 7.06499 12.7292 7.11622C12.7732 7.16744 12.7961 7.23351 12.7932 7.30101C12.7903 7.3685 12.7618 7.43236 12.7135 7.47961C12.6653 7.52686 12.6011 7.55395 12.5335 7.55539Z" fill="white"/>
</svg>
